<svg xmlns="http://www.w3.org/2000/svg" width="1200" height="630" viewBox="0 0 1200 630">
  <defs>
    <radialGradient id="m1" cx="20%" cy="30%" r="55%">
      <stop offset="0%" stop-color="#8b5cf6" stop-opacity="0.85"/>
      <stop offset="100%" stop-color="#8b5cf6" stop-opacity="0"/>
    </radialGradient>
    <radialGradient id="m2" cx="80%" cy="70%" r="55%">
      <stop offset="0%" stop-color="#ec4899" stop-opacity="0.75"/>
      <stop offset="100%" stop-color="#ec4899" stop-opacity="0"/>
    </radialGradient>
    <radialGradient id="m3" cx="55%" cy="20%" r="40%">
      <stop offset="0%" stop-color="#3b82f6" stop-opacity="0.7"/>
      <stop offset="100%" stop-color="#3b82f6" stop-opacity="0"/>
    </radialGradient>
  </defs>
  <rect width="1200" height="630" fill="#1a1033"/>
  <rect width="1200" height="630" fill="url(#m1)"/>
  <rect width="1200" height="630" fill="url(#m2)"/>
  <rect width="1200" height="630" fill="url(#m3)"/>
  <g font-family="monospace" fill="#ffffffcc">
    <text x="80" y="100" font-size="20" letter-spacing="6">&gt;_ INTENT</text>
  </g>
  <g transform="translate(80,150)">
    <rect x="0" y="0" width="720" height="62" rx="14" fill="#ffffff10" stroke="#ffffff30"/>
    <text x="24" y="42" font-family="monospace" font-size="22" fill="#ffffff">"swap 1 SOL to USDC at best price"</text>
    <text x="660" y="42" font-family="monospace" font-size="22" fill="#10b981">⏎</text>
  </g>
  <g font-family="sans-serif">
    <text x="80" y="330" font-size="116" font-weight="800" fill="#ffffff" letter-spacing="-3">SolIntent</text>
    <text x="80" y="395" font-size="36" font-weight="500" fill="#ffffffdd">DeFi in plain English.</text>
    <text x="80" y="438" font-size="24" font-weight="400" fill="#ffffff99">Type. Preview. Sign. Claude + Jupiter route every action.</text>
  </g>
  <g transform="translate(80,490)" font-family="monospace" font-size="18" fill="#ffffffaa">
    <rect x="0" y="0" width="120" height="40" rx="20" fill="#ffffff15" stroke="#ec489955"/>
    <text x="22" y="26" fill="#f9a8d4">swap</text>
    <rect x="135" y="0" width="120" height="40" rx="20" fill="#ffffff15" stroke="#8b5cf655"/>
    <text x="160" y="26" fill="#c4b5fd">stake</text>
    <rect x="270" y="0" width="120" height="40" rx="20" fill="#ffffff15" stroke="#3b82f655"/>
    <text x="298" y="26" fill="#93c5fd">lend</text>
    <rect x="405" y="0" width="160" height="40" rx="20" fill="#ffffff15" stroke="#10b98155"/>
    <text x="430" y="26" fill="#6ee7b7">limit order</text>
  </g>
  <g transform="translate(900,200)">
    <circle cx="100" cy="100" r="100" fill="none" stroke="#ffffff40" stroke-width="2"/>
    <circle cx="100" cy="100" r="70" fill="none" stroke="#ffffff60" stroke-width="2" stroke-dasharray="4 8"/>
    <text x="100" y="118" font-family="monospace" font-size="68" font-weight="700" fill="#ffffff" text-anchor="middle">{ }</text>
  </g>
  <text x="1120" y="585" font-family="monospace" font-size="14" fill="#ffffff66" text-anchor="end" letter-spacing="2">SOLINTENT.VERCEL.APP</text>
</svg>
